<?xml version="1.0" standalone="no"?>
<!DOCTYPE svg PUBLIC "-//W3C//DTD SVG 20010904//EN"
 "http://www.w3.org/TR/2001/REC-SVG-20010904/DTD/svg10.dtd">
<svg version="1.0" xmlns="http://www.w3.org/2000/svg"
 width="900.000000pt" height="500.000000pt" viewBox="0 0 900.000000 500.000000"
 preserveAspectRatio="xMidYMid meet">

<g transform="translate(0.000000,500.000000) scale(0.100000,-0.100000)"
fill="#000000" stroke="none">
<path d="M1175 3306 c-40 -17 -82 -67 -95 -114 -6 -21 -10 -154 -10 -312 0
-233 2 -279 16 -298 17 -24 43 -29 62 -10 9 9 12 88 12 294 0 340 6 364 86
364 30 0 1172 -344 1215 -366 15 -7 29 -21 33 -29 3 -9 6 -211 6 -449 0 -485
1 -476 -68 -476 -20 0 -70 10 -109 21 -82 25 -107 17 -101 -30 3 -23 13 -29
83 -53 101 -34 167 -36 212 -5 69 46 68 40 68 554 0 452 0 462 -21 490 -11 15
-38 38 -60 49 -51 29 -1228 384 -1268 384 -17 -1 -45 -7 -61 -14z"/>
<path d="M3437 2884 c-4 -4 -7 -187 -7 -406 l0 -398 70 0 70 0 0 134 c0 95 4
136 13 144 6 5 55 12 107 14 52 3 109 11 125 19 128 57 192 199 150 333 -21
65 -80 127 -141 147 -43 14 -375 25 -387 13z m332 -129 c89 -45 73 -224 -22
-254 -17 -5 -65 -13 -104 -17 l-73 -7 0 140 c0 77 3 143 7 146 13 13 163 7
192 -8z"/>
<path d="M7010 2486 l0 -404 60 -7 c66 -8 266 2 312 16 178 51 241 255 115
370 -17 16 -43 31 -59 34 -41 9 -42 21 -4 43 46 27 84 87 92 143 12 88 -48
173 -141 198 -22 6 -115 11 -207 11 l-168 0 0 -404z m310 279 c58 -30 73 -79
45 -139 -22 -46 -65 -68 -140 -69 -35 -1 -67 2 -72 6 -4 5 -7 52 -6 105 3 117
10 127 91 118 30 -4 67 -13 82 -21z m33 -346 c36 -16 57 -57 57 -109 0 -32 -7
-48 -34 -78 -34 -37 -36 -37 -121 -41 -48 -2 -91 1 -95 5 -10 10 -25 216 -18
236 7 17 168 7 211 -13z"/>
<path d="M7710 2485 l0 -405 70 0 70 0 -2 403 -3 402 -67 3 -68 3 0 -406z"/>
<path d="M1943 2736 l-28 -24 -5 -477 c-5 -509 -6 -506 44 -539 49 -31 128 -9
147 41 6 16 10 204 9 485 0 490 -2 502 -49 528 -35 18 -88 12 -118 -14z"/>
<path d="M5753 2650 c-116 -59 -167 -149 -167 -296 0 -68 5 -90 28 -137 49
-101 145 -157 268 -157 66 0 152 24 179 51 20 20 28 109 10 109 -6 0 -26 -10
-46 -21 -54 -32 -149 -37 -209 -11 -37 17 -51 30 -66 64 -37 81 -44 77 173 80
l192 3 -1 75 c0 90 -16 140 -57 186 -43 49 -98 74 -175 81 -61 4 -73 2 -129
-27z m199 -119 c19 -22 28 -42 28 -66 l0 -35 -126 0 -126 0 7 28 c26 106 150
148 217 73z"/>
<path d="M4230 2661 c-94 -29 -170 -102 -195 -185 -20 -65 -19 -171 1 -229 48
-141 219 -217 385 -171 85 24 160 95 183 174 20 69 20 171 0 241 -20 67 -97
148 -160 167 -45 13 -174 15 -214 3z m186 -126 c47 -36 68 -98 62 -184 -9
-122 -69 -186 -166 -179 -31 3 -64 13 -80 24 -105 77 -93 296 19 353 55 28
117 22 165 -14z"/>
<path d="M6483 2663 c-12 -2 -41 -25 -63 -50 l-40 -46 0 47 0 47 -67 -3 -68
-3 -3 -287 -2 -288 69 0 69 0 4 173 c4 194 15 233 70 267 22 13 50 20 86 20
l52 0 0 49 c0 73 -25 90 -107 74z"/>
<path d="M1678 2643 c-66 -26 -69 -48 -66 -438 3 -376 5 -389 67 -415 39 -16
76 -6 112 30 l29 28 0 371 c0 369 0 370 -22 396 -32 36 -75 46 -120 28z"/>
<path d="M4680 2648 c1 -27 159 -551 170 -562 17 -17 116 -14 134 4 8 8 38 99
67 203 29 103 56 184 60 180 4 -5 28 -87 54 -183 25 -96 54 -183 63 -193 21
-23 130 -21 143 3 5 8 40 125 80 260 39 135 75 257 79 273 l9 27 -58 0 c-37 0
-63 -5 -70 -13 -6 -8 -27 -81 -46 -163 -20 -82 -43 -175 -52 -208 l-16 -59
-49 199 c-27 109 -55 209 -63 221 -13 19 -24 23 -65 23 -41 0 -52 -4 -63 -22
-8 -13 -38 -107 -68 -210 -29 -104 -56 -185 -60 -180 -4 4 -28 90 -54 191 -25
101 -50 192 -56 203 -8 15 -22 18 -74 18 -46 0 -65 -4 -65 -12z"/>
<path d="M1359 2512 l-34 -30 -3 -243 c-3 -260 0 -284 46 -319 37 -29 85 -26
124 9 l33 29 0 261 0 261 -26 26 c-16 15 -41 28 -66 31 -35 5 -45 1 -74 -25z"/>
<path d="M1064 2406 l-34 -34 0 -147 c0 -88 4 -155 11 -168 19 -37 52 -57 95
-57 51 0 89 33 98 88 11 71 7 251 -8 286 -31 74 -106 88 -162 32z"/>
</g>
</svg>
